<?xml version="1.0" encoding="utf-8"?>
<!-- Generator: Adobe Illustrator 19.2.1, SVG Export Plug-In . SVG Version: 6.00 Build 0)  -->
<svg version="1.1" id="Layer_1" xmlns="http://www.w3.org/2000/svg" xmlns:xlink="http://www.w3.org/1999/xlink" x="0px" y="0px"
	 viewBox="0 0 384.2 333.6" style="enable-background:new 0 0 384.2 333.6;" xml:space="preserve">
<style type="text/css">
	.st0{fill:#33E5B6;}
</style>
<g>
	<g>
		<path class="st0" d="M340.2,181.3c12.2,0,22.2-10.5,22.2-23.6c0-12.8-9.6-23.2-21.6-23.5c1.7-9.6-2.3-19.7-10.7-24.8
			c-3.6-2.2-7.6-3.2-11.6-3.2l0,0c-7.5,0.2-14.7,4.4-18.7,11.8c-1.7,3.2-3.2,9.6-4.3,17.2c-18.5,4.5-38.5,26-47.4,51
			c15,6,29.9,7.7,42.8,6.2C260.7,245.7,265.7,305,315,305c3.7,0,7.2-0.3,10.4-1c0.5-0.5,1.3-0.8,2.1-1c4.7-1,8.9-2.7,13-5.1
			c-0.1,0-0.2-0.1-0.3-0.1c27-19,21-72.7-10.1-118.9C334.3,180.4,337.8,181.3,340.2,181.3z"/>
	</g>
	<g>
		<path class="st0" d="M225,12.7c-2.9,1.6-6.3,4.8-9,9.1c-1.6,3.6-7.2,14.1-2.3,17.3c6,0.9,11.5-5.5,14.3-10c2.6-4.3,3.9-8.9,4-12.2
			C232.2,11.2,228.8,10.7,225,12.7L225,12.7z M203,43.6c-10.8,14.1-19.5,27.8-28.5,40.7c-7.3-5.3-14.6-10.4-22.1-15.5
			c-13.2-6.4-14.3-2.2-17.7,0c11,8.5,21.9,17,32.7,25.5l-6.5,9.3c-13.7-10.9-27.7-21.7-41.7-32.5c-2.8,0.6-5.7,1.4-8.5,2.2
			c3.5,6.2,7,12.4,10.4,18.7c10,7.8,20.6,15.8,31.2,23.9l-6.6,9.4c-3.9-3-7.8-6-11.6-8.9c5.4,10.5,10.7,21.1,15.8,31.7
			c12.7,8.3,28.1,19.9,39.3,28c2.5-0.5,4.9-1,7.4-1.5l-11.6,13.7c-5.3,0.9-10.7,1.8-16.1,2.6c1.3,3.2,2.6,6.4,3.9,9.7
			c29.2-3.8,58.1-9.8,86.3-18c3.2-4.7,3.9-9.2-0.8-12.9c-18.2,6.1-36.8,11.2-55.9,15.3l12.2-14.4c5.9-1.5,11.9-3,17.7-4.7
			c-2.5-2.5-5-4.9-7.6-7.3l7.3-8.7c4.3,4,8.5,8.1,12.6,12.3c3.9-1.2,7.8-2.5,11.6-3.8c-0.7-3.2-1.6-6.4-2.6-9.5
			c-3.9-3.6-7.9-7.1-11.9-10.6l42.7-50.5c-3.9-1.2-7-4-8.6-7.4L241,121.8C229.2,103.2,212.2,88.3,192,79l20-28.6
			C208.1,49.6,204.7,46.8,203,43.6z M301.8,51.9c-3.1,1.1-7,3.8-10.2,7.7c-2.1,3.3-9.1,12.9-4.7,16.8c5.8,1.7,12.2-3.8,15.6-7.9
			c3.2-3.9,5.1-8.2,5.6-11.5s-0.2-4.8-0.9-5.3C305.4,50.8,303.3,51.4,301.8,51.9L301.8,51.9z M100,77.6c-5.8-2.5-9-0.7-9.9,4.8
			c38.4,67.1,67.1,138,91,210.6c7,3.1,6.5-1.1,8.2-2.9C171.8,216.1,138.3,144.9,100,77.6L100,77.6z M190.1,81.7
			c17.5,13,34.3,26.5,50.6,40.5l-7.3,8.7c-16-13.8-32.6-27.1-49.8-39.9L190.1,81.7z M80.5,88.3c-9.6-2.7-7.9,3.7-9.7,7.2
			c48.1,70.4,65.3,136.5,90.4,202.7c5.2,4.1,7.6,1.5,9.1-2.1C146.6,224.2,118.2,154.3,80.5,88.3z M176.2,101.5
			c16.4,13.3,32.5,26.7,47.6,40.7l-7.3,8.7c-14.9-13.6-30.6-26.9-46.8-40L176.2,101.5z M62.3,103.2c-5.9-1.6-7.4,2-7.2,7.6
			c34.8,61.7,62.9,122,83.5,189.4c6.4,3.8,9.1,2.4,11.1-0.3C125,234.3,108,170.6,62.3,103.2L62.3,103.2z M47.5,120.4
			c-6.2,9.5-11,19.8-14.2,30.7l25.2-10.7C54.9,133.7,51.2,127.1,47.5,120.4z M161.2,122.9c16.2,12.7,31.9,26,45,40.1l-7.4,8.7
			c-12.5-13.6-28-26.7-44.3-39.5L161.2,122.9z M63.8,150.5l-33.6,14.3c-3.7,2.4-4.6,6.3-1.4,12.3l40.6-15.8
			C67.6,157.7,65.7,154.1,63.8,150.5L63.8,150.5z M159.2,168.4c1.7,3.9,3.4,7.8,5.1,11.8c3.1-0.4,6.2-0.9,9.2-1.3
			C168.9,175.4,164,171.8,159.2,168.4z M74.6,171.5l-25.4,9.9c10.5,1.2,21,2,31.5,2.5C78.7,179.7,76.6,175.6,74.6,171.5L74.6,171.5z
			 M28.8,190.1c-1.1,3.4-3.7,6.4,1.1,10.7c20.1,2.5,40.3,3.9,60.6,4.3c-1.5-3.2-2.9-6.5-4.4-9.7C67.5,194.8,48.4,193.1,28.8,190.1
			L28.8,190.1z M258.6,194.5c-26.8,7.6-54.1,13.3-81.6,17c1.2,3.1,2.3,6.3,3.5,9.4c25-3.1,50.5-7.9,76.6-15.1
			C261.1,202.7,263.5,199.3,258.6,194.5L258.6,194.5z M32.3,212.5c-1.7,2.3-4.9,4.1,2.6,8.5c21.3,2.2,42.7,3.6,64.4,3.9
			c-1.2-2.8-2.4-5.7-3.6-8.5C74.4,216.3,53.3,215,32.3,212.5L32.3,212.5z M253.7,218.4c-11.9,3.1-23.9,5.8-36,8.1l29.8,11.2
			c6.1,2,19.3,7.5,18.5,13.2c-1.5,8.8-17.3,7-21.7,13.6c-1.2,2-1.8,4.7-1.4,7.3c11.9,25.3,47.4,28.9,72.2,29.5
			c9.8,0.6,6.4-9.3-0.7-9.5c-15.5-2.4-53.6-3.9-56.8-18.3c-1.6-9.5,20.5-10.6,20.5-20.1c0-12.7-16.6-23-27.5-26.6
			C251.8,224,252.9,221.2,253.7,218.4z M195.5,230.2c-3.8,0.6-7.6,1.1-11.3,1.6c1.3,3.8,2.5,7.6,3.8,11.3l41.2,18
			c5.1-1.6,12.7-1.2,10.9-14.1L195.5,230.2z M39.7,232.9c3,6.4,6.6,12.5,10.8,18.2l-0.3-17.3C46.7,233.6,43.2,233.3,39.7,232.9z
			 M61.5,234.7l0.5,30.1c1.8,10.2,7,10.1,12.1,10.6l0.1-39.9C70,235.3,65.7,235,61.5,234.7L61.5,234.7z M85.5,236l-0.1,47
			c2.5,6.1,6,9.5,12.3,6.3l-0.9-53C93,236.2,89.3,236.1,85.5,236z M108.3,247.5l0.8,46.1c5.5,1.7,11.1,3,16.7,3.9
			C120.6,280.6,114.7,264,108.3,247.5L108.3,247.5z M192.4,257.4c2.7,9,5.1,18,7.3,27.1c7.5-4.2,14.5-9.1,20.9-14.8L192.4,257.4z"/>
	</g>
</g>
</svg>
